<svg version="1" xmlns="http://www.w3.org/2000/svg" width="933.333" height="933.333" viewBox="0 0 700.000000 700.000000"><path d="M75.4 138.8c-1.7.2-2.3 1.2-2.9 5-.3 2.6-.8 5.6-1.1 6.7-.2 1.1-.6 3.3-.8 5-.3 1.6-1.4 8.4-2.6 15-1.1 6.6-2.3 13.1-2.5 14.5-.2 1.4-1.1 6.5-2 11.5-.9 4.9-1.8 10.6-2.1 12.5-.2 1.9-.7 4.2-.9 5-.2.8-.7 3.1-1 5-.3 1.9-1.2 7.1-2 11.5-1.4 7.8-7.1 41-8.1 47-.2 1.6-1.1 6.7-1.9 11.2-2.2 11.7-7.5 42.3-8 45.8-.3 1.6-.7 4.3-1.1 5.8-.3 1.6-.7 3.8-.9 5-.3 2.1-1.8 11.3-3 18.2-2.1 11.5-2.6 14.3-3 17-.3 1.6-.8 4.1-1 5.5-.3 1.4-.8 3.8-1.1 5.5-.2 1.6-.9 5.5-1.4 8.5-.5 3-1.2 6.8-1.4 8.5-1.3 7.8-1.7 10.1-2.1 11.5-.2.8-.7 3.5-1 6-.3 2.5-.8 5.2-1 6-.3.8-.7 3.1-.9 5-.3 1.9-.7 4.5-1 5.6-.2 1.2-.7 3.9-1.1 6-1 6.4-1.5 9.6-2.7 15.9-.6 3.3-1.2 6.9-1.3 8-.5 3-5.4 31.3-6.5 37-.5 2.7-1.2 6.6-1.5 8.5-.3 1.9-.8 4.8-1.1 6.3-.3 1.6-.7 3.8-.8 5-.2 1.2-.6 3.5-.9 5.2-.4 1.6-.9 4.6-1.2 6.5-.3 1.9-1.2 7.1-2 11.4-.9 4.4-1.3 8.1-1 8.4.6.7 180.3.7 181 0 .3-.2 1.9-7.8 3.5-16.9 1.7-9 4.9-26.3 7.1-38.4 2.2-12.1 5.4-29 6.9-37.5 1.6-8.5 5.9-31.7 9.5-51.5 3.6-19.8 7.2-39.2 8-43 .8-3.9 2-10.5 2.6-14.8 1.3-7.7 1.9-8.2 4.3-3.8.6 1.2 10.3 17.1 21.6 35.4 11.2 18.2 38.2 62.2 60 97.7 21.8 35.5 40.9 66.4 42.4 68.8l2.7 4.3 15.3-24.8c8.4-13.7 17.3-28.3 19.8-32.4 2.5-4.1 19.1-31 36.8-59.9 17.8-28.9 33-53.7 33.9-55.2.9-1.5 4-6.7 7-11.5s7.9-12.9 11-17.8l5.5-9 2.3 12.5c1.2 6.9 2.5 14.5 2.9 17 .3 2.5.8 4.8 1 5.1.2.5 1.6 7.8 2.9 15.4.2 1.1 1.1 6 2 11 1 4.9 1.9 10.1 2.1 11.5.3 1.4 1.3 7 2.4 12.5 2 10.9 4.1 21.8 4.6 25 .1 1.1.5 2.9.7 4 .9 4 2 10.1 2.2 12.1.2 1.2.8 4.5 1.4 7.5 1.5 7.6 4.9 25.7 5.6 29.9.3 1.9.8 4.2 1 5 .2.8.7 3.5 1 6 .4 2.4.8 4.7 1 5 .1.3.6 2.7.9 5.4.4 2.7.9 5.2 1.1 5.6.2.4.7 2.9 1 5.6.4 2.7.9 5.7 1.1 6.6.3 1 .8 3 1 4.5.3 1.5.7 3 1 3.2.2.2 41.1.5 90.9.5l90.4.1-.5-3c-.2-1.7-1.1-6.6-1.9-11-.8-4.4-1.7-9.7-2.1-11.9-.3-2.1-.8-4.8-1-6-.2-1.1-.6-3.7-1-5.6-.3-1.9-.9-5.5-1.4-8-.5-2.5-1.2-5.9-1.4-7.5-.3-1.7-.9-5.5-1.5-8.5-.5-3-1.2-7.1-1.5-9-.4-1.9-1.4-7.3-2.2-12-1.7-9.1-1.8-9.4-3.3-18.5-1.6-9.4-1.8-10.7-2.6-15-.4-2.2-.9-4.8-1.1-5.9-.2-1-.5-1.9-.6-2-.4-.2-5.9-2-18.3-5.9-11.1-3.5-43.4-15.4-51.2-18.8-2.4-1.1-6.3-2.8-8.8-3.9-2.5-1.1-4.7-2-4.9-2-.3 0-3.4-1.4-6.9-3-3.6-1.7-6.8-3-7.2-3-1.3 0-61.7-30.2-74.5-37.2-7.4-4.1-16.6-9.2-20.5-11.3-28.2-15.5-86.4-52.5-105.8-67.1-3.1-2.4-6.1-4.4-6.6-4.4s-1.1-.3-1.3-.8c-.1-.4-3-2.7-6.3-5.1-5.8-4.3-29-22.7-33-26.2-1.1-1-5.1-4.4-9-7.6-6-4.9-21.4-18.2-35-30.3-2.1-1.9-7.8-7.2-12.5-11.6-4.7-4.5-10.7-10.3-13.5-12.9-11.5-10.8-16.8-16.1-32-31.6l-16-16.3-68.5-.1c-37.7 0-69.5.1-70.6.3z"/><path d="M488.3 138.8c-2.6.3-7.6 4.7-30.5 27.6-15 15-32.9 32.4-39.8 38.6-6.9 6.3-12.7 11.7-13 12-.3.3-3.6 3.2-7.5 6.5-3.8 3.3-8.1 7-9.5 8.3-1.4 1.2-4.6 3.9-7.2 6-2.6 2-4.7 4.1-4.7 4.7 0 .5 5.4 4.8 12.1 9.5 6.7 4.7 15.4 10.7 19.3 13.4 3.8 2.8 9.3 6.5 12 8.3 6.6 4.4 8.1 5.3 12.4 8.4 9.2 6.5 43.6 28.4 63 40.1 35.1 21.1 64.3 36.8 93.1 49.7 6.3 2.9 12.9 5.8 14.5 6.6 15.7 7.1 63.5 23.5 68.4 23.5.5 0 .8-.8.7-1.8-.2-.9-.7-3.7-1.1-6.2-1-6.2-1.1-6.9-3.5-20.5-1.2-6.6-2.3-13.1-2.5-14.5-.3-1.4-.7-3.6-.9-5-.3-1.4-.8-4.1-1-6-.3-1.9-.8-4.6-1.1-6-.3-1.4-2.5-14.4-5-29s-4.7-27.6-5-29c-.2-1.4-1.5-9-2.9-17-6.5-37.7-7.7-44.7-8.1-47-.5-2.5-4.2-24.1-5-29-.6-3.6-3.4-19.1-3.8-21.5-.3-1.1-1.5-8.4-2.8-16.3-1.3-7.8-2.8-14.2-3.4-14.3-2.7-.3-134.4-.4-137.2-.1z"/></svg>